PathFileType	4	(X/Y/Z)	C:/Users/cpontonn/Documents/TRAVAIL - COURS/FORMATION DOCTORALE/COURS 2E/2023/TP OPENSIM/DATA/marche.trc	
DataRate	CameraRate	NumFrames	NumMarkers	Units	OrigDataRate	OrigDataStartFrame	OrigNumFrames	
100.00	100.00	4	38	mm	100.00	373	414	
Frame#	Time	LFHD			LBHD			RFHD			RBHD			C7			T10			CLAV			STRN			LSHO			LRAD			LHUM			LWRB			LWRA			LCAR			RSHO			RRAD			RHUM			RWRB			RWRA			RCAR			LFWT			LBWT			RFWT			RBWT			LKNE			LKNI			LANE			LHEE			LANI			LTAR			LTOE			RKNE			RKNI			RANE			RHEE			RANI			RTAR			RTOE			
		X1	Y1	Z1	X2	Y2	Z2	X3	Y3	Z3	X4	Y4	Z4	X5	Y5	Z5	X6	Y6	Z6	X7	Y7	Z7	X8	Y8	Z8	X9	Y9	Z9	X10	Y10	Z10	X11	Y11	Z11	X12	Y12	Z12	X13	Y13	Z13	X14	Y14	Z14	X15	Y15	Z15	X16	Y16	Z16	X17	Y17	Z17	X18	Y18	Z18	X19	Y19	Z19	X20	Y20	Z20	X21	Y21	Z21	X22	Y22	Z22	X23	Y23	Z23	X24	Y24	Z24	X25	Y25	Z25	X26	Y26	Z26	X27	Y27	Z27	X28	Y28	Z28	X29	Y29	Z29	X30	Y30	Z30	X31	Y31	Z31	X32	Y32	Z32	X33	Y33	Z33	X34	Y34	Z34	X35	Y35	Z35	X36	Y36	Z36	X37	Y37	Z37	X38	Y38	Z38	

259	2.580	-777.51959	272.54913	1703.20935	-628.48022	272.12723	1728.43628	-776.76563	407.06442	1696.40430	-615.65723	397.50153	1717.08167	-523.53973	342.42102	1607.45789	-414.19345	325.32861	1396.67041	-632.16827	334.52734	1506.91711	-641.24219	323.11096	1328.06116	-569.40509	137.00443	1577.46313	-409.92920	74.17491	1244.95630	-385.79422	130.25656	1263.92737	-386.31500	57.10884	988.97375	-406.09052	130.85196	979.10162	-398.45059	81.83292	897.71027	-564.82031	527.27063	1541.78845	-494.30853	613.83569	1171.93787	-464.06711	557.22614	1173.91760	-693.53717	606.69580	997.30200	-728.86920	552.51172	1031.19751	-771.95721	601.51514	961.58466	-657.95129	222.89760	1063.77515	-459.98367	272.08655	1093.60645	-651.86963	412.14401	1057.25623	-457.19257	352.10410	1095.16199	-768.42975	154.23907	589.91132	-792.04205	267.36761	562.93793	-836.56433	204.96625	137.74628	-776.87158	266.55295	45.30848	-845.38074	292.19702	152.98730	-1005.04956	186.45805	103.52221	-1054.93933	268.13000	128.46944	-487.34238	445.15567	540.80194	-478.81332	347.18982	502.86133	-349.68387	397.83902	95.07432	-265.73566	334.02756	35.14534	-363.32043	310.14185	124.98499	-503.73544	419.42984	37.40332	-558.84399	331.44177	40.11014 
260	2.590	-791.74561	272.25635	1698.98047	-642.83673	271.89328	1724.93286	-790.79047	406.85342	1692.24817	-629.92383	397.24677	1713.78271	-537.37390	341.81430	1604.14099	-427.89371	324.30981	1393.42773	-646.00690	334.52475	1503.59949	-654.93439	323.32739	1324.72681	-584.17175	136.64125	1574.02380	-425.17477	74.22237	1241.01758	-400.33838	130.20383	1260.67236	-400.71713	58.31183	985.30670	-419.55038	132.05910	975.82324	-411.43628	83.98671	894.13391	-577.86761	526.86694	1538.65393	-507.44885	614.19971	1168.95654	-477.34247	557.40369	1170.68835	-708.26233	607.59418	996.09875	-743.39191	553.45331	1030.31348	-787.03479	602.62476	961.16656	-672.84125	223.71666	1060.42163	-474.39005	271.68103	1090.51538	-665.27899	412.94299	1054.30676	-471.09390	351.68829	1092.42651	-783.18549	156.27798	586.05219	-808.15082	269.48251	559.90338	-878.20013	206.31747	137.06245	-824.28131	268.32040	41.85002	-885.77051	293.03351	153.85422	-1047.96240	186.98428	113.97948	-1095.96826	268.54822	143.35464	-491.68475	445.19861	539.73230	-482.85336	347.22079	502.09604	-350.06638	397.42703	95.37415	-265.86707	333.86499	35.47463	-363.85510	309.60623	125.04075	-503.81357	419.41208	37.30443	-559.05872	331.47305	39.40922 
261	2.600	-806.15845	272.12872	1694.58350	-657.30103	271.53995	1721.16370	-805.13855	406.65881	1688.08936	-644.24762	396.86545	1710.19019	-551.30231	341.13162	1600.53101	-441.69348	323.28668	1389.93481	-659.97906	334.40424	1499.99524	-668.75427	323.51105	1321.12048	-599.04816	136.13617	1570.23242	-440.32098	74.29679	1236.95972	-415.12537	130.09464	1256.93164	-415.65561	59.46624	981.25018	-433.56436	133.18568	972.21844	-425.03430	86.07484	890.15588	-591.03735	526.40094	1535.31335	-520.56775	614.45508	1165.79431	-490.66205	557.51941	1167.28687	-722.69202	608.49774	994.40161	-757.63843	554.38293	1028.79773	-801.69885	603.81305	960.08337	-687.88751	224.49966	1056.90735	-488.93271	271.21817	1086.94324	-678.75305	413.70157	1051.18225	-485.04971	351.14822	1089.20020	-797.93079	158.60155	581.70844	-824.62689	271.98767	556.42828	-918.33032	206.44885	137.79527	-870.29486	270.27515	40.01151	-925.28046	293.80438	155.75635	-1088.51477	186.23183	124.79205	-1134.58899	266.97934	157.78328	-496.92792	445.13229	538.61298	-487.30438	347.06372	501.22928	-350.46402	396.89188	95.72325	-266.02267	333.63620	35.79406	-364.40030	309.00244	125.05056	-503.87357	419.35553	37.20394	-559.24133	331.47510	38.70819 
262	2.610	-821.17456	273.44888	1691.57446	-671.85529	271.07718	1717.13770	-819.38507	406.38678	1683.49915	-658.64630	396.40756	1706.32129	-565.40930	340.30792	1596.62195	-455.49271	322.31537	1386.19604	-674.06128	334.22327	1496.12134	-682.61353	323.62192	1317.21558	-614.18140	135.59865	1566.10266	-455.64957	74.28011	1232.54358	-430.12909	129.82251	1252.78979	-431.03931	60.60841	976.81091	-448.09753	134.27853	968.19641	-439.21249	88.07370	885.80481	-604.34088	525.80695	1531.74573	-533.65454	614.61670	1162.46350	-503.95224	557.55896	1163.72559	-736.78723	609.41895	992.19647	-771.68970	555.25684	1026.69495	-816.00812	604.99213	958.31171	-703.16095	225.27190	1053.16980	-503.56049	270.72989	1083.02441	-692.30682	414.57233	1047.87317	-499.04858	350.54047	1085.62354	-812.70868	161.23444	576.96417	-841.08862	274.51413	552.61230	-955.08582	206.81470	140.36774	-914.44012	272.14713	39.64775	-963.48767	294.26099	158.38435	-1126.55579	184.19806	135.38986	-1172.55737	264.00983	171.80331	-502.39868	445.01544	537.36279	-492.32364	346.79199	500.23688	-350.90454	396.31567	96.18339	-266.21698	333.28882	36.24978	-365.14963	308.27057	125.07959	-503.93799	419.32098	37.09231	-559.44885	331.47034	38.01835 
